<svg width="317" height="199" viewBox="0 0 317 199" fill="none" xmlns="http://www.w3.org/2000/svg">
<path d="M311.296 0H5.70443C2.55396 0 0 2.55009 0 5.69579V193.304C0 196.45 2.55396 199 5.70443 199H311.296C314.446 199 317 196.45 317 193.304V5.69579C317 2.55009 314.446 0 311.296 0Z" fill="#E0F1FB"/>
<path d="M300.883 57.0363H123.731V66.4378H300.883V57.0363Z" fill="#C9D1E0"/>
<path d="M222.849 74.0765H123.731V83.4781H222.849V74.0765Z" fill="#C9D1E0"/>
<path d="M300.883 111.573H198.8V120.975H300.883V111.573Z" fill="#C9D1E0"/>
<path d="M272.816 125.605H226.867V135.007H272.816V125.605Z" fill="#C9D1E0"/>
<path d="M284.9 137.004H214.775V146.406H284.9V137.004Z" fill="#C9D1E0"/>
<path d="M300.757 171.579H230.633V180.98H300.757V171.579Z" fill="#C9D1E0"/>
<path d="M300.884 13.3658H16.1172V46.2479H300.884V13.3658Z" fill="#FAFEFF"/>
<path d="M27.5096 44.0307H18.5488V15.5909H27.5096V44.0307Z" fill="#B2A6A9"/>
<path d="M31.3395 15.5909H28.9385V44.0307H31.3395V15.5909Z" fill="#B2A6A9"/>
<path d="M37.8283 15.5909H32.8301V44.0307H37.8283V15.5909Z" fill="#B2A6A9"/>
<path d="M40.4335 15.5909H39.3271V44.0307H40.4335V15.5909Z" fill="#B2A6A9"/>
<path d="M46.9223 15.5909H43.2188V44.0307H46.9223V15.5909Z" fill="#B2A6A9"/>
<path d="M49.5194 15.5909H48.4131V44.0307H49.5194V15.5909Z" fill="#B2A6A9"/>
<path d="M53.4118 15.5909H51.0107V44.0307H53.4118V15.5909Z" fill="#B2A6A9"/>
<path d="M88.4693 44.0307H87.3629V15.5909H88.4693V44.0307ZM84.546 44.0307H83.4397V15.5909H84.546V44.0307ZM81.9488 44.0307H80.8425V15.5909H81.9488V44.0307ZM79.3516 44.0307H78.2767V15.5909H79.383L79.3516 44.0307ZM76.7544 44.0307H75.6794V15.5909H76.7858L76.7544 44.0307ZM71.56 44.0307H70.485V15.5909H71.5914L71.56 44.0307ZM67.6367 44.0307H66.5382V15.5909H67.6367V44.0307ZM65.0474 44.0307H63.996V15.5909H65.1259L65.0474 44.0307ZM58.5505 44.0307H57.499V15.5909H58.6054L58.5505 44.0307Z" fill="#B2A6A9"/>
<path d="M96.2612 15.5909H92.5576V44.0307H96.2612V15.5909Z" fill="#B2A6A9"/>
<path d="M98.8583 15.5909H97.752V44.0307H98.8583V15.5909Z" fill="#B2A6A9"/>
<path d="M105.356 15.5909H101.652V44.0307H105.356V15.5909Z" fill="#B2A6A9"/>
<path d="M109.247 15.5909H108.141V44.0307H109.247V15.5909Z" fill="#B2A6A9"/>
<path d="M126.126 44.0307H123.725V15.5909H126.126V44.0307ZM122.202 44.0307H119.801V15.5909H122.202V44.0307ZM118.279 44.0307H115.878V15.5909H118.279V44.0307ZM113.085 44.0307H110.684V15.5909H113.085V44.0307Z" fill="#B2A6A9"/>
<path d="M141.709 44.0307H140.603V15.5909H141.709V44.0307ZM139.112 44.0307H138.005V15.5909H139.112V44.0307ZM133.917 44.0307H132.811V15.5909H133.917V44.0307ZM129.994 44.0307H128.896V15.5909H129.994V44.0307Z" fill="#B2A6A9"/>
<path d="M150.693 44.0307H149.587V15.5909H150.693V44.0307ZM146.77 44.0307H145.664V15.5909H146.77V44.0307ZM144.173 44.0307H143.074V15.5909H144.173V44.0307Z" fill="#B2A6A9"/>
<path d="M155.88 15.5909H153.479V44.0307H155.88V15.5909Z" fill="#B2A6A9"/>
<path d="M162.376 15.5909H157.378V44.0307H162.376V15.5909Z" fill="#B2A6A9"/>
<path d="M164.974 15.5909H163.867V44.0307H164.974V15.5909Z" fill="#B2A6A9"/>
<path d="M171.47 15.5909H167.767V44.0307H171.47V15.5909Z" fill="#B2A6A9"/>
<path d="M174.06 15.5909H172.953V44.0307H174.06V15.5909Z" fill="#B2A6A9"/>
<path d="M177.952 15.5909H175.551V44.0307H177.952V15.5909Z" fill="#B2A6A9"/>
<path d="M213.01 44.0307H211.912V15.5909H213.01V44.0307ZM209.087 44.0307H208.012V15.5909H209.118L209.087 44.0307ZM206.49 44.0307H205.383V15.5909H206.49V44.0307ZM203.893 44.0307H202.786V15.5909H203.893V44.0307ZM201.295 44.0307H200.189V15.5909H201.295V44.0307ZM196.101 44.0307H195.003V15.5909H196.164L196.101 44.0307ZM192.178 44.0307H191.071V15.5909H192.241L192.178 44.0307ZM189.581 44.0307H188.474V15.5909H189.581V44.0307ZM183.084 44.0307H182.04V15.5909H183.139L183.084 44.0307Z" fill="#B2A6A9"/>
<path d="M220.809 15.5909H217.105V44.0307H220.809V15.5909Z" fill="#B2A6A9"/>
<path d="M223.406 15.5909H222.3V44.0307H223.406V15.5909Z" fill="#B2A6A9"/>
<path d="M229.896 15.5909H226.192V44.0307H229.896V15.5909Z" fill="#B2A6A9"/>
<path d="M233.787 15.5909H232.681V44.0307H233.787V15.5909Z" fill="#B2A6A9"/>
<path d="M250.666 44.0307H248.265V15.5909H250.666V44.0307ZM246.742 44.0307H244.341V15.5909H246.742V44.0307ZM242.819 44.0307H240.418V15.5909H242.819V44.0307ZM237.625 44.0307H235.224V15.5909H237.625V44.0307Z" fill="#B2A6A9"/>
<path d="M266.249 44.0307H265.143V15.5909H266.249V44.0307ZM263.652 44.0307H262.545V15.5909H263.644L263.652 44.0307ZM258.457 44.0307H257.367V15.5909H258.473L258.457 44.0307ZM254.534 44.0307H253.443V15.5909H254.55L254.534 44.0307Z" fill="#B2A6A9"/>
<path d="M283.079 44.0307H276.057V15.5909H283.079V44.0307ZM275.288 44.0307H272.887V15.5909H275.288V44.0307ZM270.093 44.0307H267.692V15.5909H270.093V44.0307Z" fill="#B2A6A9"/>
<path d="M298.655 44.0307H297.557V15.5909H298.655V44.0307ZM296.058 44.0307H294.959V15.5909H296.058V44.0307ZM290.871 44.0307H289.765V15.5909H290.871V44.0307ZM286.948 44.0307H285.85V15.5909H286.948V44.0307Z" fill="#B2A6A9"/>
<path d="M105.347 51.4266H15.873V116.274H105.347V51.4266Z" fill="#FAFEFF"/>
<path d="M105.347 117.3H15.873V182.148H105.347V117.3Z" fill="#FAFEFF"/>
<path d="M24.8184 81.9974C25.603 80.5793 28.4905 79.2788 26.2543 81.5273C25.9718 81.9582 24.8419 83.58 24.8184 81.9974ZM25.603 84.6612C26.4661 82.0914 28.9692 80.454 31.1505 79.0672C34.0067 77.6335 37.1374 77.2888 40.0406 75.9334C40.9273 75.1499 45.3371 74.8835 44.3092 76.0666C40.3859 75.9569 36.9726 78.1192 33.2848 79.0516C30.7974 80.3129 28.2708 81.7153 26.6309 84.0657C26.3014 84.6847 24.6379 86.1811 25.5952 84.6612H25.603ZM27.1723 85.1077C29.0163 82.5772 31.9273 80.9711 34.6893 79.6235C37.5454 78.511 40.378 77.2731 43.4539 77.0067C46.0119 76.6855 49.4172 76.8187 51.3004 78.4326C48.6483 78.1506 45.3057 76.9911 42.3711 77.8764C39.6784 78.4432 37.0755 79.3736 34.6344 80.642C32.0269 81.8547 29.6527 83.5147 27.6196 85.5465C27.3214 88.0301 25.4853 86.1262 27.2194 85.1077H27.1723ZM27.7687 90.686C28.8122 87.5051 32.1863 86.0401 34.6187 84.2381C37.5611 84.8022 31.7547 87.7167 30.4757 88.3043C28.9535 88.9467 28.2395 91.6105 27.7765 92.1119C27.5882 91.6552 27.5882 91.1427 27.7765 90.686H27.7687ZM28.0433 86.5101C29.8794 84.2851 32.5394 83.0864 34.9639 81.7545C37.5376 80.877 35.9918 83.1491 34.399 83.0629C32.045 83.8464 30.1148 86.9802 27.8785 86.8314L28.0433 86.5101ZM29.0319 92.6525C29.1575 91.1796 31.5036 87.4816 32.2176 88.9546C30.766 89.5578 30.3502 92.817 29.0319 92.6525ZM29.5498 95.7002C29.9108 92.9032 32.1706 90.874 33.4731 88.5001C33.9439 90.5528 31.0485 93.0677 30.3345 95.4338C30.154 95.802 29.0163 96.8284 29.5498 95.7002ZM31.0171 96.8597C31.1191 95.4573 33.0023 91.3755 33.6771 92.9816C32.9386 94.6584 32.0288 96.2546 30.9622 97.745C30.8857 97.6076 30.8502 97.4512 30.8599 97.2943C30.8697 97.1374 30.9242 96.9866 31.0171 96.8597ZM28.3258 76.5288C30.355 74.7439 32.9658 73.7579 35.6701 73.7553C38.1104 73.1129 40.5664 74.0061 43.0459 73.5516C45.7686 73.9904 48.6404 73.5516 51.2847 74.5623C52.9011 75.1342 54.8314 76.0822 54.9098 77.8764C56.7695 77.2418 55.3963 79.4433 57.3266 79.929C59.5236 82.4283 60.7633 85.5465 61.8854 88.6333C61.5951 93.3341 58.684 97.2514 55.4748 100.526C53.6387 103.033 50.8453 104.663 49.1191 107.256C48.0206 108.377 45.9098 107.867 48.0363 106.614C49.9979 104.687 51.4495 102.109 53.7642 100.652C56.0326 98.6554 58.0084 96.3503 59.6334 93.8042C60.9595 90.9524 61.4381 87.4111 59.5236 84.6768C58.7666 82.9294 57.663 81.3531 56.2794 80.0429C54.8958 78.7328 53.2608 77.716 51.473 77.0537C50.3902 75.4241 55.9456 78.6207 53.0423 76.2076C50.6884 74.5623 47.5498 74.8914 44.8584 74.437C41.7826 74.6407 38.9735 74.0687 35.9918 74.437C33.2477 74.8973 30.6182 75.8815 28.2473 77.3358L28.1767 77.1086L28.365 76.5288H28.3258ZM31.8959 99.3511C32.833 96.5632 34.2539 93.9616 36.0938 91.6653C37.365 90.0984 39.8759 92.0101 37.3964 92.7622C34.603 94.5642 34.3048 98.1759 32.0293 100.268L31.8959 100.033V99.3668V99.3511ZM34.3441 99.1318C35.271 96.5228 37.0015 94.2739 39.2874 92.7074C42.0812 90.5279 45.3828 89.0912 48.8837 88.5315C49.9744 89.5813 46.0197 89.8634 45.3527 90.6703C42.528 91.4146 41.0607 93.1226 38.5341 94.525C36.8804 96.6863 35.3982 98.9731 34.1008 101.365C33.2142 100.84 33.8105 99.6802 34.3441 99.1318ZM30.5149 77.1948C32.9866 75.6905 36.0075 75.7845 38.7695 75.1264C39.4365 76.2859 35.113 75.9099 33.9282 76.9911C33.1435 76.8422 29.4243 79.6 30.5149 77.1948ZM34.7913 102.908C35.8977 100.338 37.0982 97.9252 38.9421 96.0841C41.2569 94.2351 43.65 92.2294 46.467 91.2109C47.3144 93.3498 42.2377 93.1931 41.9866 95.4965C39.0284 96.6638 36.6509 100.127 35.7093 103.284C35.3092 104.467 34.3676 104.201 34.7913 102.9V102.908ZM33.6614 91.493C34.2185 89.3541 38.0319 86.5023 39.562 88.0066C37.9927 89.5735 35.2621 89.5735 34.399 92.0179C34.2107 92.0414 33.1592 91.7985 33.6614 91.493ZM30.8131 72.9876C33.0886 71.7497 35.882 72.5253 38.283 71.8359C41.2882 71.2169 44.4347 71.8359 47.5498 72.2824C49.7546 72.776 49.6134 71.499 47.6282 71.3423C45.1621 70.872 42.6607 70.6099 40.1505 70.5588C38.2281 69.5011 36.2821 72.964 34.501 70.6215C36.7529 67.4171 41.0842 70.6215 44.2856 70.2454C46.9456 70.3629 49.7782 70.7312 51.6535 72.8309C52.9247 73.6143 56.3065 75.4085 55.7572 76.2154C53.0267 74.437 50.3431 72.3373 46.875 72.7995C43.6344 72.6115 40.48 72.0866 37.1139 72.6507C35.0189 72.8465 32.9003 73.3088 30.8367 72.9562L30.8131 72.9876ZM34.242 87.4581C36.1017 85.4603 38.7381 84.8335 41.3039 84.5123C42.6692 83.9482 47.5812 83.6113 43.7991 84.6533C41.0371 85.335 37.8593 85.9774 35.7721 87.7872C35.3876 88.3356 32.7355 88.6333 34.2028 87.419L34.242 87.4581ZM36.596 103.911C39.2011 104.287 40.0642 100.103 42.3083 98.9672C44.3484 97.1731 46.2316 95.379 48.7503 94.2664C50.5707 92.6995 54.2429 90.0044 51.8889 87.4816C49.5349 84.9589 45.8942 86.3143 43.0459 86.9332C42.018 87.7872 39.0049 88.1162 40.9116 86.4396C43.6108 85.9226 46.3257 85.0294 49.1034 85.1626C51.4024 85.4916 54.2507 87.7245 53.6073 90.2943C51.8575 93.4281 48.6326 95.3085 45.7608 97.3455C43.2671 99.1971 41.0251 101.365 39.0912 103.793C38.7146 104.976 36.5646 105.627 36.6274 103.927L36.596 103.911ZM36.9256 102.485C38.8794 98.0114 43.344 95.4338 47.2516 92.8405C49.4643 92.1354 52.7442 88.3983 48.8209 87.6697C45.6823 87.4346 43.2028 89.5735 40.3702 90.0201C39.5855 88.6098 43.8541 88.3513 44.9683 87.4581C47.3615 86.5258 52.5794 86.7295 51.2926 90.4353C49.637 93.2871 46.1766 94.0157 43.909 96.2329C41.1248 98.1726 38.7759 100.67 37.0119 103.566C36.6352 103.425 37.0119 102.783 36.9099 102.477L36.9256 102.485ZM39.46 105.321C41.453 103.229 42.8419 100.581 45.3763 99.0534C47.9186 96.703 51.2847 95.1988 53.419 92.4018C54.3841 90.2473 56.7616 86.9646 54.1252 85.0921C52.9717 83.2901 48.8915 82.0992 48.6954 81.1277C51.6457 81.2844 54.2978 83.4781 55.8436 85.899C56.9185 88.4766 54.8706 90.8349 54.0702 93.1696C50.555 97.604 44.6544 99.5627 41.5158 104.428C41.0371 104.796 38.2045 107.977 39.4443 105.345L39.46 105.321ZM35.8349 83.6113C38.2757 81.8847 41.1058 80.7867 44.0738 80.4148C45.4626 79.365 49.739 81.684 46.2159 81.1983C43.7269 81.0826 41.2412 81.4882 38.9186 82.3891C38.4478 85.0216 43.7913 80.6028 43.3754 83.0316C41.3589 83.3841 38.6675 84.1519 37.004 84.2303C36.5175 85.0137 35.9134 84.1754 35.8349 83.6113ZM36.8785 80.5793C39.8759 79.4981 42.9674 78.3229 46.2943 78.4718C49.9754 78.8834 53.404 80.5426 56.0083 83.1726C57.5776 85.335 59.3431 88.0692 58.0171 90.8114C57.5227 92.3783 55.3885 95.614 54.0938 94.7914C55.3324 93.1414 56.2141 91.2525 56.6831 89.2444C56.9107 90.3021 56.6831 92.3783 57.4678 90.0279C58.0563 87.8264 57.0048 85.5308 55.5297 83.8777C54.2036 81.9425 51.8418 80.9005 49.6919 80.0701C47.0476 78.5031 43.4931 79.4355 40.6291 80.3129C39.7739 80.1406 35.9604 82.6633 36.9413 80.5323L36.8785 80.5793ZM38.4478 90.0984C40.8018 88.837 38.7695 93.1618 38.2673 90.4196L38.4478 90.0984ZM41.7747 105.721C43.8854 103.496 46.0589 101.302 48.3109 99.2728C49.6997 98.3718 52.7363 95.2536 53.6073 96.1389C51.9124 98.2934 49.4643 99.7037 47.3301 101.553C45.337 103.08 43.9168 105.251 42.0572 106.888C41.7041 106.645 41.8532 106.058 41.7904 105.689L41.7747 105.721ZM37.0668 67.942C38.9421 66.9157 43.2263 69.4385 43.6265 67.942C42.1357 67.754 39.8916 66.2811 42.8419 66.853C44.7564 68.5453 47.5498 68.749 49.4879 69.9869C45.9491 69.5481 42.426 68.8665 38.8323 68.6393C38.1751 68.6166 37.5482 68.3579 37.0668 67.9107V67.942ZM44.1287 106.7C46.3414 105.133 47.6518 102.603 49.8802 101.216C51.4495 98.5833 54.5881 97.7294 56.2359 95.1596C57.9778 92.8797 59.963 90.2003 59.0842 87.1448C58.0641 84.3008 56.079 81.2766 53.2071 80.0936C51.2926 79.365 52.2342 77.9312 53.7015 79.3101C57.0362 81.0337 59.0293 84.5907 59.9787 88.1006C60.0572 91.5635 58.2995 94.6738 55.9377 97.0869C54.0153 99.2258 51.4809 100.691 49.6605 102.955C47.8793 103.503 45.9255 108.212 44.1679 106.637L44.1287 106.7ZM44.725 82.3343C45.6666 81.919 50.1313 82.0836 47.0005 82.7417C46.5768 82.7103 44.3562 83.1412 44.725 82.3343ZM50.1548 107.946C53.4504 104.42 56.6439 100.793 59.759 97.1104C61.3283 94.5328 63.031 91.6262 62.5288 88.4923C63.0108 85.7766 62.4505 82.9793 60.9595 80.6577C59.5175 78.1146 57.5838 75.8829 55.2708 74.0922C54.0546 72.6272 49.943 71.4676 50.5628 70.2298C54.4505 72.1733 57.8264 75.0019 60.4181 78.4875C62.9682 82.6868 64.2158 87.7794 63.0702 92.5898C62.4739 95.0421 60.7947 97.1261 59.4137 99.1631C57.6326 101.702 55.2865 103.684 53.3562 106.042C52.2969 106.261 50.1313 110.743 50.1627 107.907L50.1548 107.946ZM47.487 90.7722C48.7346 89.4873 50.3667 90.0436 48.3344 91.0699C48.1147 91.3755 46.8514 91.4695 47.5027 90.7722H47.487ZM43.8854 65.811C47.8087 68.1066 52.9168 68.4826 56.126 72.0317C54.7607 72.7055 51.7555 68.8979 49.3231 68.7255C47.4321 68.0361 44.6779 68.0439 43.8854 65.811ZM47.4635 83.909C48.5384 82.7417 53.5445 84.575 51.2455 84.9432C50.0293 84.434 48.6483 84.5593 47.4635 83.9012V83.909ZM46.8828 75.5416C48.3187 75.3693 52.5009 76.7482 48.8445 76.3956C48.2246 76.2781 46.9299 76.4661 46.8828 75.5338V75.5416ZM53.16 108.016C56.997 104.099 60.8104 99.9936 63.2115 95.0421C64.0551 93.0013 64.4701 90.8094 64.431 88.6019C64.3919 86.3945 63.8993 84.2186 62.9839 82.2089C62.3797 80.736 62.568 78.9419 63.3841 81.2453C64.0275 83.7915 65.3143 86.1576 65.2908 88.8214C65.2738 93.3149 63.5975 97.6443 60.5829 100.981C58.5433 103.768 56.2842 106.388 53.827 108.815C53.0973 109.536 52.9247 108.502 53.16 108.032V108.016ZM46.0982 65.6465C48.9229 65.1764 51.4887 67.2683 53.9918 68.3024C57.8382 70.3373 61.1562 73.2399 63.6823 76.7795C63.8313 78.6598 61.0615 74.7268 60.2298 73.8102C58.4408 71.8202 55.875 70.8095 53.9525 68.9684C51.5986 68.1222 49.378 66.6963 46.8907 66.2811C46.5454 66.2733 46.0197 66.0617 46.0511 65.6387L46.0982 65.6465ZM55.7102 108.737C59.152 105.242 62.0911 101.287 64.4434 96.9851C65.228 94.2978 66.5462 91.6105 66.1304 88.7274C67.0092 86.6982 64.3492 84.6142 65.3457 83.2431C67.4957 85.2174 66.915 88.5393 66.8287 91.3206C66.2245 94.7757 65.3379 98.317 63.0859 101.114C61.5715 104.248 58.5428 106.277 56.6125 109.097C56.2359 109.473 55.4512 109.442 55.6631 108.729L55.7102 108.737ZM49.0171 64.4948C50.3824 63.8053 54.5097 67.1742 51.4887 65.9442C50.7825 65.3096 49.1112 65.7248 49.0171 64.4948ZM52.854 85.1469C54.4233 85.6248 55.0589 89.7772 53.3405 86.8157C53.1287 86.4318 51.8261 85.3506 52.854 85.1469ZM57.8915 108.815C59.7041 107.499 61.8148 104.467 62.9133 103.762C62.6465 106.003 60.881 108.627 59.6805 110.108C60.2925 109.05 60.6378 106.347 59.2019 108.588C58.7075 109.254 56.8008 110.939 57.8915 108.815ZM51.7869 63.7818C53.1522 62.2619 56.1731 66.7825 53.3562 64.91C52.8933 64.675 51.0807 64.7768 51.7869 63.7818ZM53.3013 66.5945C54.6117 65.6543 56.3457 68.8039 53.9918 67.3779C53.6779 67.2683 53.0973 67.0176 53.3013 66.5945ZM61.8697 109.152C63.2664 105.548 66.5776 103.182 67.9351 99.5548C69.4057 97.3376 70.3256 94.8022 70.6186 92.1589C71.1687 89.0358 71.0511 85.8318 70.2733 82.7573C69.7676 80.2122 69.0079 77.7241 68.0057 75.3301C65.9891 71.687 62.5131 69.3131 59.5864 66.4456C58.6762 64.1501 62.2463 67.5346 62.8034 68.3416C65.3379 70.0966 67.0798 72.7525 68.8531 75.1969C69.4887 77.8215 70.4224 80.3364 71.2071 82.9219C71.9917 85.5073 71.5602 87.9909 71.67 90.5685C71.3954 92.9737 71.1679 95.4338 69.8732 97.6197C68.9944 100.448 67.1269 102.783 65.6831 105.337C63.8941 105.486 62.8034 111.369 61.9011 109.168L61.8697 109.152ZM56.3771 76.5601C58.4878 77.6335 59.2019 80.1562 60.6221 81.8955C61.9403 82.9297 62.5131 88.1633 61.0772 84.575C60.2376 81.6448 57.9386 79.5373 56.5105 76.9127L56.3771 76.5601ZM55.1609 65.4585C58.6997 65.8972 60.834 69.1642 63.3056 71.3579C66.0522 73.3975 67.891 76.4286 68.4294 79.8037C69.9987 83.0316 70.2184 86.7217 69.881 90.2394C69.6299 91.4538 69.6299 95.8177 68.4765 95.0656C68.6726 92.5742 69.473 90.1376 69.2611 87.6305C69.8418 84.4966 68.602 81.5587 67.3937 78.7617C66.1774 74.2411 62.3013 71.2953 59.0685 68.2554C57.8209 67.2996 55.82 67.0254 55.1452 65.4585H55.1609ZM56.0162 67.6992C58.9586 68.7255 60.8497 71.3814 63.1879 73.2853C65.8519 76.42 67.6337 80.2054 68.3509 84.2538C68.8767 86.8 68.4686 89.3855 68.2176 91.8925C68.3039 93.4595 66.5462 96.2173 67.2132 96.9616C69.9595 94.2508 66.303 100.276 65.6439 101.263C65.2986 102.83 62.7721 104.906 63.5802 102.156C65.6596 100.111 66.507 97.4551 66.9229 94.6503C68.4922 90.0749 67.8566 85.0764 66.6639 80.4853C65.4634 76.568 62.6779 73.4341 59.4294 71.0837C59.0685 69.3758 56.1182 69.3679 56.0554 67.707L56.0162 67.6992ZM56.6047 72.5018C59.296 73.1521 60.6927 76.521 62.5131 77.8529C61.0694 78.2211 62.5131 80.1249 61.2969 78.2368C60.2925 75.855 57.6169 74.625 56.6047 72.5018ZM64.7023 108.902C66.4681 105.799 68.4039 102.797 70.5009 99.9074C71.1208 102.861 67.9429 105.008 66.5776 107.397C66.5149 108.322 63.3684 111.753 64.7258 108.902H64.7023ZM56.7695 62.6772C58.2211 61.4628 59.1234 65.3174 57.2559 63.1864L57.0284 62.9514L56.7695 62.6772ZM58.9272 63.6095C60.1905 61.5881 62.2699 66.2184 64.0824 66.4613C65.7302 67.4406 65.5654 69.744 63.6823 67.6992C62.6151 65.9442 59.4765 64.4086 58.9272 63.6095ZM67.0249 109.332C68.3431 106.919 70.3204 104.929 71.4817 102.422C73.5375 100.479 73.718 97.7215 74.6203 95.2458C75.9935 93.5143 74.9342 89.8947 76.582 89.0877C76.5442 91.8215 76.0126 94.526 75.0126 97.0712C73.9612 100.683 71.7642 103.817 69.8261 106.998C69.677 107.57 65.4399 111.91 67.0092 109.348L67.0249 109.332ZM62.9211 78.1271C64.3806 78.7303 65.1417 83.2431 64.5611 82.3029C64.153 80.8535 62.8584 79.7097 62.9211 78.1271ZM61.8383 62.6772C63.4861 62.3324 66.1225 67.1664 63.5018 64.722C63.1644 64.0639 61.5088 63.4606 61.8383 62.6772ZM64.1923 77.892C65.4477 78.9811 67.2524 83.2588 66.1304 82.9062C65.3361 81.2958 64.6875 79.6177 64.1923 77.892ZM70.1321 108.667C72.7136 105.893 74.2201 102.297 75.5462 98.8027C76.935 94.5407 78.4808 89.7537 76.4015 85.4368C75.2794 82.8514 75.3265 79.8115 73.561 77.5003C73.1923 76.4191 70.5166 72.9562 71.9917 73.2696C73.561 75.8707 75.5227 78.3308 76.0327 81.4098C76.731 84.1363 77.9943 86.7452 78.2062 89.5657C78.1592 92.6183 77.594 95.641 76.5349 98.505C75.8522 101.639 73.9063 104.35 72.5645 107.233C72.3998 107.805 69.7869 110.492 70.1086 108.667H70.1321ZM63.3292 62.0504C66.2638 62.1131 67.684 65.3331 69.473 67.2056C72.1391 70.304 74.5037 73.6488 76.5349 77.1948C77.7183 79.6104 78.3787 82.2479 78.473 84.9354C77.2803 84.0501 77.3038 80.4775 76.2603 78.6677C74.0711 74.0531 70.8226 70.0496 67.5741 66.1322C66.0676 64.9257 64.6552 63.0376 63.3292 62.0974V62.0504ZM70.8854 97.4708C73.0589 95.4338 69.4887 101.545 70.65 97.792L70.8854 97.4708ZM65.2437 65.67C67.5977 66.9862 69.0414 69.3993 70.6186 71.4755C70.9952 74.2098 68.5706 69.7989 67.7625 69.1251C66.9543 68.0282 65.3614 67.0254 65.2437 65.67ZM65.7694 68.7412C67.8017 70.2533 68.908 72.6585 70.6892 74.4056C72.4154 76.9989 74.0711 79.6705 74.6596 82.7809C75.9621 85.1783 75.5305 87.7245 75.0519 90.3021C74.9891 91.4851 74.0161 95.8882 74.1417 92.5428C74.9784 87.6177 74.297 82.5551 72.1879 78.0252C70.3801 75.2869 68.4152 72.6553 66.303 70.1436C66.0462 69.7137 65.8781 69.2369 65.8087 68.7412H65.7694ZM71.3405 100.636C72.3291 98.4815 72.337 96.1546 72.2899 93.8669C72.6979 90.1141 72.9176 86.2281 72.0153 82.5458C71.7563 80.4148 69.779 78.3386 70.0458 76.3486C71.447 78.6811 72.4717 81.2192 73.0824 83.8699C74.0397 87.7872 73.255 91.775 73.0824 95.7237C73.0353 96.609 72.1879 101.772 71.3405 100.636ZM65.9107 61.6116C69.0964 61.9642 70.289 65.6543 72.2271 67.7305C74.5419 71.4363 77.8531 74.578 79.1164 78.8792C79.799 79.9604 80.262 84.8414 79.0301 81.3236C78.4193 78.7621 77.3364 76.3364 75.8365 74.1706C74.4006 71.1699 71.7014 69.0389 70.0379 66.1714C68.7747 64.5418 67.2995 63.1472 65.9107 61.6116ZM74.1966 107.836C75.6836 104.433 76.9931 100.955 78.1199 97.416C78.9908 94.9246 78.9045 92.2451 79.5166 89.7067C78.7319 87.8029 79.2419 84.6925 79.8304 83.58C80.8191 86.1106 80.1521 89.2288 80.0423 91.9631C79.6638 94.4788 79.0733 96.9581 78.2768 99.3746C77.4922 100.158 76.8095 103.927 78.4573 101.545C80.1443 97.0712 81.5174 92.3783 81.4311 87.5365C81.2899 82.491 80.3169 77.2888 77.2803 73.1442C76.786 71.9612 73.6709 69.3288 75.5148 68.8117C77.0028 70.9371 78.3149 73.18 79.4381 75.5181C81.8559 79.8412 82.7979 84.8328 82.1216 89.738C81.8791 94.3095 80.659 98.7761 78.5436 102.838C76.4721 104.091 76.1269 108.557 73.9063 108.557L73.9769 108.298L74.228 107.836H74.1966ZM77.1783 107.436C78.6947 104.877 80.0292 102.215 81.1722 99.4686C82.9769 95.755 82.8827 91.5557 83.3221 87.5443C83.3221 84.4966 83.2123 81.2766 81.9098 78.464C80.9682 75.7924 79.3439 73.3479 78.371 70.6293C77.1077 68.6628 74.5105 66.4848 74.2123 64.5105C76.7852 66.7428 78.8642 69.4857 80.3169 72.5645C81.7136 75.1499 82.2001 78.0487 83.6203 80.6185C83.7929 83.2509 84.2559 85.9774 84.044 88.6333C83.8947 93.9819 82.5545 99.2301 80.1207 103.997C80.1992 105.266 76.3544 109.693 77.1391 107.452V107.413L77.1783 107.436ZM68.9394 61.1102C71.4425 62.0661 72.078 65.2626 73.9848 66.9079C75.711 68.5766 73.7415 69.1799 73.1059 67.2134C71.4032 65.3018 70.6186 63.0062 68.9394 61.1102ZM72.9804 61.3453C74.5497 61.3453 77.2568 66.2654 74.5105 63.6957C74.1049 63.4263 73.7591 63.0766 73.4945 62.6682C73.23 62.2599 73.0523 61.8016 72.9725 61.3218L72.9804 61.3453ZM80.7877 106.081C81.2114 103.449 83.2594 101.38 83.6831 98.74C85.2524 93.9374 85.2131 88.8214 84.8522 83.8542C85.1975 80.501 83.2829 77.7667 82.7101 74.6093C81.5174 71.969 79.8147 69.5873 78.5122 67.0019C80.4189 66.5318 80.8034 70.7312 82.3805 71.9534C83.7929 74.0139 83.3457 76.85 84.8993 78.887C85.8644 81.1904 85.6369 83.6897 85.9036 86.0792C85.119 88.6412 85.9036 91.1483 85.8095 93.7337C85.3226 97.5917 84.0172 101.302 81.9804 104.616C80.9917 108.29 84.3343 102.132 85.0641 101.012C87.0179 97.8782 87.01 94.0941 87.3003 90.5685C86.398 86.8314 87.8025 82.7339 85.7781 79.2239C86.2881 77.8607 82.9298 74.4291 84.8365 74.6955C86.2607 77.2606 87.2221 80.0557 87.677 82.9532C88.03 85.7894 87.2532 88.602 87.9359 91.4225C88.5872 95.426 87.1512 99.3668 85.0327 102.689C84.8757 103.707 80.3248 109.74 80.7877 106.105V106.081ZM75.711 61.7762C78.4808 62.5048 79.4695 68.3103 76.7938 63.915C76.4015 63.2178 76.1112 62.4813 75.711 61.7762ZM78.0649 62.2463C80.772 63.3039 81.6508 66.8609 83.738 68.6942C83.3927 69.0154 81.7764 68.561 81.3448 68.0674C81.3448 66.1949 78.8496 63.9385 78.0649 62.2463ZM85.527 103.645C88.0614 102.36 87.881 98.9986 89.207 96.7892C89.521 94.2996 90.0459 91.8412 90.7763 89.4403C91.2864 86.7922 90.6586 84.1049 90.6822 81.4333C90.033 78.8959 89.2017 76.4085 88.1948 73.9904C86.9343 71.1148 85.2057 68.4674 83.0789 66.1557C84.2637 64.0796 86.0998 69.1016 87.2297 70.2219C88.6578 72.9327 90.1565 75.6278 90.8391 78.652C91.8513 81.6683 91.7179 84.8492 91.8042 87.9674C91.1946 92.4529 90.0704 96.8535 88.4538 101.083C88.4538 102.187 85.7153 106.512 85.5035 103.605L85.527 103.645ZM82.0902 69.509C84.1852 69.509 83.0475 73.5125 82.5532 70.4178C82.6316 70.0182 81.6508 69.885 82.0667 69.509H82.0902ZM81.2428 63.0924C83.6674 61.9329 82.8121 67.3701 81.7607 63.962C81.5253 63.7113 81.0074 63.4998 81.2193 63.0924H81.2428ZM83.8322 70.1436C85.8016 71.2013 86.9708 74.1392 87.6142 76.1136C85.9978 76.2233 85.7859 72.6977 84.1539 71.6478C83.9043 71.1876 83.7926 70.6654 83.8322 70.1436ZM89.9838 101.192C91.2498 97.4041 92.187 93.5142 92.785 89.5657C93.3657 86.8157 92.785 83.9012 92.5026 81.1277C91.5531 78.4718 91.561 75.5416 90.2192 73.0424C89.7092 71.546 86.3509 67.9577 88.085 67.4563C89.0187 69.9555 91.3491 71.7262 91.8199 74.4448C92.6046 77.3514 93.1931 80.3129 93.9306 83.2196C94.2823 85.7159 94.1303 88.2572 93.4834 90.6938C93.0126 93.7102 92.0475 96.6325 91.7258 99.6723C91.2864 100.017 89.5915 103.911 89.9838 101.192ZM83.7772 63.2256C85.8016 63.0219 88.2105 68.5766 85.3465 65.7092C84.7482 64.9311 84.2229 64.0998 83.7772 63.2256ZM88.8618 90.9524C89.1591 87.2257 88.8946 83.4755 88.0771 79.8272C87.5985 78.558 88.0771 76.1527 88.7127 78.6912C89.4881 81.6961 89.9198 84.7791 89.9995 87.8812C90.1172 88.367 89.0815 92.9659 88.8618 90.9524ZM93.1695 97.745C94.2602 94.5642 94.5348 91.1953 95.1782 87.9204C95.1782 86.6277 94.7075 81.355 95.8766 84.9902C96.3709 88.2729 95.0919 91.4851 94.8565 94.7444C95.0056 95.473 92.8949 101.333 93.1695 97.745ZM88.4145 65.811C90.6429 66.7825 91.3256 69.4855 92.7537 71.2953C93.5854 73.8807 95.5235 76.4975 95.4058 79.0594C93.3892 76.3878 92.9184 73.1286 91.1922 70.3864C90.1477 68.9473 89.2189 67.4278 88.4145 65.8424V65.811Z" fill="#B2A6A9"/>
<path d="M26.2543 153.559C28.4905 155.808 25.5716 154.499 24.8184 153.089C24.8419 151.459 25.9718 153.081 26.2543 153.559ZM26.6231 150.997C28.263 153.347 30.7896 154.75 33.2769 156.011C36.9648 156.944 40.4016 159.106 44.3013 158.996C45.3292 160.179 40.9195 159.952 40.0328 159.129C37.1296 157.798 33.9988 157.445 31.1427 155.996C28.9613 154.617 26.4347 152.979 25.5952 150.409C24.6379 148.858 26.3014 150.362 26.6231 150.958V150.997ZM27.1802 149.979C25.4461 148.96 27.2822 147.056 27.5803 149.54C29.6176 151.567 31.9909 153.226 34.5951 154.444C37.0507 155.702 39.6668 156.62 42.3711 157.171C45.3449 158.056 48.6483 156.897 51.3475 156.591C49.4643 158.205 46.0589 158.338 43.501 158.017C40.4251 157.735 37.5925 156.513 34.7364 155.392C31.9744 154.076 29.0633 152.47 27.2194 149.908L27.1802 149.979ZM27.7765 144.4C27.5882 143.944 27.5882 143.431 27.7765 142.974C28.2395 143.476 28.9535 146.108 30.4757 146.782C31.7547 147.37 37.5376 150.284 34.6187 150.84C32.1863 149.046 28.8122 147.581 27.7687 144.4H27.7765ZM27.8864 148.255C30.1226 148.059 32.0293 151.279 34.4068 152.023C35.9761 151.937 37.5454 154.209 34.9718 153.324C32.5472 151.992 29.8872 150.801 28.0511 148.576L27.8864 148.255ZM32.2176 146.124C31.5036 147.605 29.1575 143.907 29.0319 142.426C30.3502 142.23 30.766 145.489 32.2176 146.085V146.124ZM29.5498 139.386C29.0084 138.258 30.1462 139.284 30.3345 139.653C31.025 142.003 33.9203 144.533 33.4731 146.586C32.2019 144.236 29.9421 142.183 29.5498 139.386ZM31.0171 138.227C30.9244 138.098 30.87 137.946 30.8603 137.788C30.8506 137.63 30.8859 137.472 30.9622 137.333C32.0268 138.828 32.9365 140.427 33.6771 142.105C33.0023 143.672 31.1191 139.629 31.0171 138.187V138.227ZM28.3258 158.597L28.1374 158.017L28.2081 157.782C30.5948 159.219 33.2383 160.18 35.9918 160.61C38.9735 161.01 41.7826 160.438 44.8584 160.61C47.5812 160.156 50.6727 160.485 53.0423 158.84C55.9456 156.411 50.3902 159.623 51.473 157.993C53.2623 157.332 54.8987 156.316 56.2837 155.005C57.6687 153.695 58.7735 152.119 59.5314 150.37C61.446 147.636 60.9674 144.103 59.6413 141.243C58.0119 138.695 56.0337 136.388 53.7642 134.388C51.4103 132.938 49.9979 130.361 48.0363 128.425C45.9098 127.18 48.0363 126.663 49.1191 127.791C50.8453 130.384 53.6387 132.014 55.4748 134.521C58.684 137.764 61.5951 141.697 61.8854 146.414C60.7633 149.501 59.5314 152.619 57.3266 155.118C55.3963 155.596 56.7695 157.805 54.9098 157.171C54.8314 158.965 52.9011 159.913 51.2847 160.485C48.6404 161.527 45.7921 161.057 43.0459 161.496C40.5664 161.041 38.1104 161.934 35.6701 161.292C32.9658 161.289 30.355 160.303 28.3258 158.518V158.597ZM31.8959 135.767V135.101L32.0293 134.873C34.3048 136.957 34.603 140.577 37.3964 142.379C39.8759 143.162 37.3964 145.004 36.0938 143.476C34.2443 141.173 32.8153 138.564 31.8724 135.767H31.8959ZM34.1008 133.8C35.3982 136.192 36.8804 138.478 38.5341 140.64C41.0607 142.042 42.528 143.774 45.3527 144.494C46.0197 145.278 49.9743 145.583 48.8837 146.633C45.3786 146.059 42.0768 144.606 39.2874 142.41C37.0002 140.849 35.2691 138.602 34.3441 135.994C33.8105 135.367 33.2142 134.207 34.1008 133.722V133.8ZM30.5149 157.939C29.4243 155.533 33.1121 158.283 33.9282 158.142C35.113 159.184 39.4208 158.847 38.7695 160.007C36.0311 159.349 32.9866 159.435 30.5149 157.939ZM35.7329 131.841C36.6509 134.975 39.0284 138.462 42.0101 139.637C42.2612 141.932 47.3379 141.784 46.4905 143.922C43.6814 142.904 41.2804 140.89 38.9657 139.049C37.1217 137.208 35.9212 134.795 34.8148 132.225C34.3676 130.839 35.3092 130.58 35.7329 131.763V131.841ZM34.399 143.1C35.2621 145.575 38.0162 145.536 39.562 147.119C37.9927 148.623 34.2185 145.771 33.6614 143.625C33.1592 143.249 34.2107 142.998 34.399 143.021V143.1ZM30.8131 162.138C32.9003 161.785 35.0189 162.248 37.0903 162.443C40.4565 163.008 43.6108 162.443 46.8514 162.295C50.3196 162.757 53.0031 160.657 55.7337 158.879C56.283 159.662 52.9011 161.472 51.63 162.263C49.7547 164.363 46.922 164.723 44.2621 164.841C41.0607 164.473 36.7294 167.669 34.4774 164.473C36.2586 162.122 38.2045 165.593 40.1269 164.535C42.6371 164.484 45.1386 164.222 47.6047 163.752C49.5899 163.58 49.7311 162.318 47.5262 162.812C44.3876 163.227 41.249 163.877 38.2595 163.25C35.8584 162.569 33.0651 163.344 30.7896 162.107L30.8131 162.138ZM34.242 147.66C32.7512 146.453 35.4033 146.751 35.8114 147.299C37.8985 149.148 41.0764 149.791 43.8384 150.472C47.6282 151.514 42.7085 151.169 41.3432 150.613C38.7617 150.292 36.1252 149.665 34.2813 147.66H34.242ZM36.596 131.207C36.5332 129.499 38.6832 130.157 39.0598 131.34C40.9937 133.769 43.2357 135.936 45.7294 137.788C48.6012 139.817 51.8261 141.666 53.5759 144.839C54.2193 147.409 51.371 149.642 49.072 149.971C46.2943 150.096 43.5794 149.187 40.8802 148.694C38.9735 147.017 41.9866 147.338 43.0145 148.2C45.8628 148.819 49.5506 150.229 51.8575 147.652C54.1644 145.074 50.5707 142.442 48.7189 140.867C46.2316 139.747 44.317 137.952 42.2769 136.166C40.0328 135.03 39.1383 130.846 36.5646 131.222L36.596 131.207ZM36.9256 132.633C36.9883 132.366 36.6509 131.685 37.0276 131.544C38.8041 134.414 41.158 136.884 43.9404 138.799C46.208 141.016 49.6683 141.752 51.324 144.604C52.6108 148.31 47.4007 148.521 44.9996 147.581C43.8854 146.68 39.6169 146.422 40.4016 145.019C43.2342 145.474 45.7294 147.605 48.8523 147.37C52.7206 146.641 49.48 142.912 47.283 142.207C43.3597 139.629 38.9107 137.036 36.9569 132.562L36.9256 132.633ZM39.46 129.797C38.2202 127.156 41.0293 130.345 41.5315 130.713C44.6701 135.578 50.555 137.529 54.0859 141.972C54.8706 144.322 56.9342 146.672 55.8593 149.242C54.2899 151.593 51.6614 153.857 48.7111 154.006C48.9072 153.042 52.9874 151.851 54.1409 150.041C56.7773 148.177 54.3998 144.886 53.4347 142.739C51.3004 139.942 47.9421 138.462 45.392 136.08C42.8575 134.513 41.4687 131.888 39.4757 129.812L39.46 129.797ZM35.8349 151.498C35.9134 150.942 36.5175 150.08 37.004 150.887C38.691 150.966 41.3589 151.734 43.3754 152.078C43.7913 154.515 38.4478 150.096 38.9186 152.729C41.2412 153.629 43.7269 154.035 46.2159 153.919C49.739 153.434 45.4312 155.745 44.0738 154.703C41.1046 154.336 38.2734 153.237 35.8349 151.506V151.498ZM36.8785 154.468C35.8977 152.305 39.7111 154.86 40.5664 154.687C43.4303 155.565 46.9848 156.466 49.6291 154.922C51.7791 154.1 54.1409 153.058 55.4669 151.122C56.9421 149.461 57.9935 147.205 57.405 144.964C56.6204 142.614 56.8558 144.737 56.6204 145.795C56.1526 143.786 55.2708 141.897 54.031 140.248C55.3571 139.464 57.4913 142.598 57.9543 144.22C59.2803 146.97 57.5463 149.704 55.9456 151.859C53.3427 154.491 49.9134 156.151 46.2316 156.56C42.9282 156.709 39.8366 155.525 36.8157 154.452L36.8785 154.468ZM38.3379 144.659C38.8401 141.917 40.8488 146.226 38.5184 144.972L38.3379 144.659ZM41.8453 129.358C41.9081 128.99 41.759 128.402 42.1121 128.159C43.9718 129.797 45.392 131.959 47.385 133.487C49.5349 135.343 51.9831 136.754 53.6622 138.908C52.7913 139.825 49.739 136.707 48.3658 135.774C46.1139 133.745 43.9404 131.551 41.8296 129.326L41.8453 129.358ZM38.848 166.392C42.426 166.165 45.9648 165.483 49.5036 165.037C47.5655 166.306 44.7956 166.51 42.8575 168.171C39.9308 168.743 42.1749 167.27 43.6422 167.082C43.242 165.601 38.9343 168.131 37.0825 167.082C37.5576 166.654 38.1696 166.41 38.8087 166.392H38.848ZM44.1915 128.371C45.9805 126.804 47.9343 131.504 49.684 132.061C51.5044 134.317 54.0389 135.79 55.9613 137.929C58.3152 140.342 60.0807 143.413 60.0022 146.915C59.0606 150.425 57.0676 153.966 53.725 155.706C52.2577 157.085 51.3161 155.659 53.2307 154.922C56.1025 153.771 58.0877 150.739 59.1077 147.871C59.9865 144.823 58.0014 142.144 56.2594 139.856C54.6273 137.294 51.4495 136.44 49.9037 133.808C47.6753 132.445 46.3649 129.891 44.1522 128.324L44.1915 128.371ZM47.0554 152.305C50.1941 152.964 45.7215 153.089 44.7799 152.713C44.3562 151.906 46.5768 152.329 47.0162 152.305H47.0554ZM50.1941 127.101C50.1941 124.25 52.3283 128.747 53.3876 128.958C55.3178 131.309 57.664 133.299 59.4451 135.845C60.8261 137.882 62.5053 139.966 63.1016 142.418C64.2472 147.26 62.9996 152.36 60.4495 156.52C57.8353 160.005 54.4381 162.828 50.5315 164.763C49.943 163.525 54.0546 162.357 55.2394 160.9C57.5526 159.11 59.4886 156.882 60.936 154.342C62.427 152.021 62.9873 149.223 62.5053 146.508C63.0075 143.374 61.3047 140.475 59.7354 137.89C56.5968 134.207 53.3954 130.598 50.1313 127.062L50.1941 127.101ZM48.3737 143.969C50.4059 145.004 48.7738 145.536 47.5262 144.275C46.8514 143.578 48.1147 143.672 48.3501 143.969H48.3737ZM49.3466 166.329C51.7791 166.126 54.7843 162.342 56.1496 163.023C52.9403 166.572 47.8715 166.941 43.909 169.244C44.6779 167.003 47.4321 167.011 49.3231 166.329H49.3466ZM51.269 150.104C53.5681 150.472 48.562 152.313 47.487 151.146C48.6483 150.48 50.0293 150.605 51.2455 150.104H51.269ZM48.868 158.659C52.5245 158.307 48.3423 159.686 46.9064 159.513C46.9299 158.573 48.2246 158.761 48.8444 158.659H48.868ZM53.1679 127.039C52.9325 126.569 53.1051 125.534 53.8348 126.255C56.292 128.683 58.5512 131.303 60.5907 134.09C63.6055 137.423 65.2819 141.75 65.2986 146.241C65.2986 148.913 64.0353 151.279 63.3919 153.818C62.6073 156.129 62.3876 154.335 62.9918 152.862C63.9072 150.852 64.3997 148.676 64.4388 146.469C64.478 144.261 64.0629 142.069 63.2193 140.029C60.8183 135.077 57.0048 130.933 53.1679 127.054V127.039ZM46.8907 168.75C49.4094 168.343 51.5986 166.909 53.9525 166.071C55.8593 164.23 58.4251 163.219 60.2298 161.229C61.0615 160.312 63.8313 156.372 63.6823 158.26C61.1426 161.809 57.8082 164.717 53.9447 166.753C51.4417 167.779 48.8758 169.886 46.0511 169.408C46.0197 168.985 46.5454 168.774 46.875 168.75H46.8907ZM56.5576 125.981C58.4878 128.809 61.5166 130.846 63.031 133.972C65.2829 136.769 66.1696 140.311 66.7738 143.766C66.8758 146.539 67.4407 149.869 65.2908 151.843C64.3021 150.449 66.9621 148.365 66.0754 146.359C66.4913 143.476 65.1652 140.781 64.3884 138.101C62.0362 133.799 59.0971 129.844 55.6552 126.349C55.4512 125.605 56.2359 125.566 56.5576 125.981ZM51.4887 169.072C54.494 167.849 50.3824 171.218 49.0171 170.529C49.1112 169.322 50.7825 169.738 51.4887 169.095V169.072ZM53.3562 148.231C55.0746 145.27 54.4233 149.422 52.8697 149.9C51.8261 149.697 53.1287 148.615 53.3562 148.231ZM57.9072 126.232C56.8165 124.109 58.6919 125.793 59.2176 126.459C60.6535 128.7 60.3082 125.997 59.6962 124.939C60.8967 126.42 62.6622 129.037 62.929 131.285C61.7991 130.572 59.7197 127.548 57.9072 126.232ZM53.3954 170.106C56.2123 168.241 53.1914 172.762 51.8261 171.234C51.0807 170.27 52.8933 170.364 53.3562 170.129L53.3954 170.106ZM54.0075 167.654C56.3614 166.22 54.6273 169.377 53.317 168.437C53.0973 168.022 53.6779 167.779 53.9918 167.661L54.0075 167.654ZM61.854 125.879C62.7564 123.678 63.847 129.554 65.636 129.71C67.0798 132.257 68.9473 134.591 69.8261 137.427C71.1208 139.582 71.3483 142.034 71.6229 144.439C71.5131 147.017 71.9996 149.571 71.16 152.094C70.3204 154.617 69.4338 157.194 68.806 159.819C67.0327 162.255 65.2908 164.919 62.7564 166.666C62.1993 167.45 58.6291 170.866 59.5393 168.57C62.4346 165.703 65.9421 163.321 67.9586 159.686C68.9608 157.292 69.7205 154.804 70.2263 152.258C71.004 149.184 71.1217 145.98 70.5715 142.857C70.288 140.218 69.3818 137.683 67.9272 135.461C66.5776 131.841 63.2193 129.467 61.8619 125.871L61.854 125.879ZM56.3614 158.463L56.4948 158.119C57.8994 155.486 60.2219 153.418 61.0615 150.449C62.4974 146.853 61.9246 152.094 60.6064 153.136C59.1862 154.875 58.4722 157.39 56.3614 158.463ZM55.1609 169.581C55.82 168.014 57.8209 167.748 59.0842 166.784C62.317 163.713 66.1931 160.806 67.4172 156.285C68.6256 153.488 69.8653 150.535 69.2847 147.417C69.4887 144.91 68.6883 142.465 68.5 139.982C69.6535 139.198 69.6535 143.593 69.9045 144.808C70.2419 148.325 70.0066 152.008 68.4529 155.243C67.9166 158.617 66.0771 161.647 63.3292 163.681C60.8575 165.875 58.7232 169.166 55.1845 169.581H55.1609ZM56.0162 167.348C56.079 165.687 59.0293 165.679 59.3902 163.971C62.6387 161.621 65.4242 158.424 66.6247 154.523C67.8174 149.932 68.4843 144.941 66.8836 140.358C66.4678 137.545 65.6203 134.873 63.541 132.86C62.7564 130.11 65.2594 132.194 65.6046 133.753C66.303 134.74 69.9595 140.765 67.174 138.054C66.507 138.799 68.2646 141.533 68.1783 143.123C68.4294 145.63 68.8374 148.216 68.3117 150.762C67.5931 154.81 65.8114 158.595 63.1487 161.731C60.7947 163.634 58.9194 166.29 55.9769 167.317L56.0162 167.348ZM61.2969 156.81C62.4896 154.914 61.0694 156.81 62.5131 157.194C60.6927 158.518 59.296 161.895 56.6047 162.545C57.6169 160.422 60.2925 159.192 61.2969 156.81ZM64.7023 126.138C63.3448 123.286 66.4913 126.718 66.5541 127.642C67.9429 130.032 71.1208 132.178 70.4773 135.124C68.3866 132.238 66.4586 129.238 64.7023 126.138ZM57.0284 172.033L57.2559 171.798C59.1548 169.675 58.2211 173.53 56.7695 172.315L57.0284 172.033ZM58.9272 171.375C59.4765 170.592 62.6151 169.025 63.6823 167.285C65.5654 165.248 65.7302 167.544 64.0824 168.531C62.2699 168.774 60.1592 173.404 58.9272 171.375ZM67.0249 125.66C65.4556 123.082 69.6927 127.415 69.8418 128.01C71.7799 131.144 73.9769 134.278 75.0283 137.929C76.0282 140.477 76.5598 143.184 76.5976 145.92C74.9499 145.137 76.0092 141.494 74.636 139.762C73.7494 137.263 73.5689 134.529 71.4974 132.578C70.3361 130.071 68.3588 128.089 67.0406 125.676L67.0249 125.66ZM64.5611 152.776C65.1417 151.828 64.3806 156.348 62.9211 156.951C62.8584 155.337 64.153 154.194 64.5611 152.776ZM63.5018 170.349C66.1225 167.904 63.5018 172.738 61.8383 172.386C61.5088 171.579 63.1644 170.983 63.5018 170.317V170.349ZM64.2315 157.179C64.7254 155.452 65.374 153.774 66.1696 152.164C67.2917 151.812 65.487 156.082 64.2315 157.179ZM70.1713 126.404C69.8496 124.579 72.4625 127.258 72.6273 127.838C73.9691 130.721 75.915 133.408 76.5976 136.566C77.6575 139.429 78.2227 142.452 78.269 145.505C78.0571 148.318 76.7938 150.927 76.0955 153.661C75.5854 156.732 73.6238 159.2 72.0545 161.801C70.5558 162.114 73.2315 158.667 73.6238 157.57C75.3893 155.22 75.3422 152.219 76.4643 149.634C78.5436 145.317 76.9978 140.53 75.609 136.268C74.2829 132.774 72.7764 129.217 70.1949 126.404H70.1713ZM63.3292 173.02C64.6552 172.088 66.0676 170.2 67.5741 168.985C70.8226 165.068 74.0711 161.057 76.2602 156.45C77.3038 154.593 77.2803 151.021 78.473 150.143C78.3797 152.828 77.7193 155.463 76.5349 157.876C74.5057 161.426 72.1409 164.773 69.473 167.873C67.684 169.745 66.2638 172.965 63.3292 173.02ZM70.6186 137.247C69.4573 133.502 73.0275 139.598 70.854 137.576L70.6186 137.247ZM67.7311 165.93C68.5157 165.248 70.9638 160.83 70.5872 163.58C69.0179 165.664 67.5741 168.077 65.2123 169.393C65.3614 168.014 66.9543 167.019 67.7624 165.93H67.7311ZM65.738 166.306C65.8062 165.81 65.9744 165.333 66.2324 164.904C68.3688 162.394 70.3573 159.762 72.1879 157.022C74.3104 152.496 75.0054 147.433 74.1809 142.504C74.0554 139.159 75.0283 143.562 75.0911 144.745C75.5697 147.323 76.0013 149.869 74.6988 152.266C74.1103 155.4 72.4547 158.048 70.7284 160.642C68.9473 162.404 67.8409 164.786 65.8087 166.306H65.738ZM73.0745 139.323C73.2236 143.241 74.0083 147.268 73.0745 151.177C72.4641 153.826 71.4393 156.361 70.0379 158.691C69.7712 156.709 71.7485 154.625 72.0074 152.501C72.9098 148.811 72.6901 144.925 72.2821 141.18C72.3291 138.885 72.3213 136.558 71.3326 134.411C72.1879 133.267 73.0353 138.43 73.1059 139.323H73.0745ZM65.9107 173.435C67.2995 171.869 68.7747 170.497 70.0379 168.868C71.7014 166 74.4006 163.877 75.8365 160.869C77.3377 158.707 78.4209 156.283 79.0301 153.724C80.262 150.206 79.8147 155.087 79.1164 156.168C77.8531 160.469 74.5419 163.603 72.2271 167.317C70.289 169.385 69.0885 173.083 65.9107 173.435ZM74.1966 127.211L73.9455 126.749L73.8749 126.498C76.0955 126.498 76.4407 130.964 78.5122 132.217C80.6277 136.279 81.8477 140.745 82.0902 145.317C82.7665 150.22 81.8244 155.209 79.4067 159.529C78.2853 161.871 76.9731 164.116 75.4834 166.243C73.6395 165.718 76.7546 163.109 77.2489 161.911C80.2855 157.758 81.2585 152.556 81.3997 147.518C81.486 142.677 80.1129 137.976 78.4259 133.51C76.7781 131.121 77.4294 134.889 78.2454 135.68C79.0427 138.097 79.6333 140.576 80.0109 143.092C80.1207 145.826 80.7955 148.944 79.799 151.467C79.2105 150.362 78.7005 147.252 79.4852 145.348C78.9045 142.802 78.9594 140.123 78.0885 137.639C76.9604 134.098 75.6509 130.618 74.1652 127.211H74.1966ZM77.1783 127.618C76.3936 125.37 80.2384 129.804 80.16 131.066C82.5949 135.835 83.9351 141.086 84.0832 146.437C84.2951 149.093 83.8322 151.812 83.6595 154.452C82.2393 157.03 81.7528 159.936 80.3561 162.498C78.9056 165.581 76.8263 168.327 74.2515 170.56C74.5497 168.586 77.1469 166.408 78.4102 164.441C79.3832 161.746 81.0074 159.302 81.949 156.607C83.2515 153.786 83.3535 150.574 83.3614 147.526C82.922 143.515 83.0161 139.316 81.2114 135.602C80.0685 132.856 78.7339 130.194 77.2175 127.634L77.1783 127.618ZM68.9394 173.929C70.5794 172.002 71.4268 169.714 73.1059 167.826C73.7415 165.859 75.711 166.463 73.9847 168.131C72.0388 169.777 71.4425 172.965 68.9394 173.929ZM74.5105 171.328C77.2568 168.774 74.5575 173.678 72.9804 173.678C73.0704 173.207 73.2551 172.758 73.5235 172.359C73.7919 171.961 74.1383 171.621 74.5419 171.359L74.5105 171.328ZM80.7877 128.958C80.3483 125.323 84.8757 131.356 85.0327 132.366C87.1826 135.688 88.5872 139.637 87.9359 143.633C87.2532 146.461 88.03 149.266 87.677 152.11C87.2221 155.007 86.2607 157.802 84.8365 160.367C82.9298 160.634 86.2881 157.233 85.7781 155.839C87.8025 152.36 86.398 148.231 87.3003 144.494C87.01 140.961 87.0178 137.177 85.0641 134.051C84.3579 132.93 80.9917 126.772 81.9804 130.447C84.0172 133.761 85.3226 137.471 85.8095 141.329C85.935 143.907 85.1111 146.422 85.9036 148.976C85.6369 151.373 85.9036 153.872 84.8993 156.168C83.33 158.213 83.7929 161.049 82.3805 163.102C80.8112 164.324 80.4189 168.531 78.5122 168.061C79.8147 165.475 81.5174 163.094 82.7101 160.453C83.3221 157.32 85.1974 154.554 84.8522 151.201C85.2131 146.218 85.2445 141.102 83.6831 136.315C83.2594 133.651 81.2114 131.614 80.7877 128.974V128.958ZM76.7938 171.101C79.4695 166.706 78.4808 172.511 75.711 173.232C76.1112 172.566 76.4015 171.829 76.7938 171.132V171.101ZM78.0336 172.77C78.8182 171.077 81.3448 168.813 81.3134 166.941C81.745 166.447 83.3614 166 83.7066 166.322C81.6194 168.155 80.7406 171.712 78.0336 172.77ZM85.527 131.403C85.7389 128.496 88.4851 132.821 88.4773 133.918C90.0858 138.15 91.2021 142.553 91.8042 147.041C91.7179 150.174 91.8513 153.308 90.8391 156.356C90.1565 159.38 88.6578 162.075 87.2297 164.778C86.0998 165.906 84.2637 170.928 83.0789 168.852C85.2056 166.541 86.9343 163.893 88.1948 161.018C89.2017 158.599 90.033 156.112 90.6822 153.575C90.6822 150.903 91.2864 148.216 90.7763 145.568C90.0467 143.167 89.5218 140.708 89.207 138.219C87.9202 136.002 88.0614 132.648 85.527 131.363V131.403ZM82.5532 164.629C83.0475 161.535 84.1852 165.562 82.0902 165.538C81.6508 165.162 82.6316 165.029 82.5296 164.629H82.5532ZM81.7685 171.085C82.8356 167.669 83.6752 173.114 81.2506 171.955C81.0074 171.579 81.5253 171.336 81.7371 171.085H81.7685ZM83.84 164.888C83.7991 164.366 83.9108 163.843 84.1617 163.384C85.7938 162.334 86.0056 158.808 87.622 158.91C87.0021 160.884 85.8095 163.83 83.84 164.888ZM89.9917 133.839C89.5994 131.121 91.2942 135.014 91.7336 135.351C92.0553 138.391 93.0204 141.321 93.4912 144.33C94.1379 146.769 94.29 149.313 93.9385 151.812C93.2009 154.711 92.636 157.672 91.8278 160.579C91.357 163.305 89.0266 165.076 88.0928 167.575C86.3587 167.074 89.717 163.485 90.2271 161.989C91.5688 159.49 91.561 156.56 92.5104 153.904C92.8321 151.13 93.3735 148.216 92.7929 145.458C92.1939 141.512 91.2567 137.625 89.9917 133.839ZM85.3779 169.338C88.2419 166.47 85.833 172.017 83.8086 171.822C84.2443 170.949 84.7591 170.117 85.3465 169.338H85.3779ZM89.9917 147.166C89.8991 150.269 89.4543 153.353 88.6656 156.356C87.9987 158.894 87.5514 156.489 88.03 155.22C88.847 151.572 89.1115 147.821 88.8147 144.095C89.0815 142.081 90.1172 146.68 89.9603 147.166H89.9917ZM94.8879 140.303C95.1076 143.562 96.4023 146.774 95.908 150.057C94.7388 153.684 95.1782 148.419 95.2096 147.127C94.5662 143.844 94.2916 140.483 93.2009 137.302C92.8949 133.714 95.0056 139.574 94.8565 140.303H94.8879ZM88.4145 169.228C89.2172 167.642 90.146 166.122 91.1922 164.684C92.9184 161.942 93.3892 158.675 95.4058 156.011C95.5235 158.573 93.5854 161.19 92.7537 163.768C91.3256 165.554 90.6429 168.257 88.4145 169.252V169.228Z" fill="#B2A6A9"/>
<path d="M112.308 68.7882H108.22V98.9046H112.308V68.7882Z" fill="#C9D1E0"/>
<path d="M112.308 134.67H108.22V164.786H112.308V134.67Z" fill="#C9D1E0"/>
<path d="M151.336 132.883H131.476C127.256 132.883 123.834 136.3 123.834 140.514V160.344C123.834 164.558 127.256 167.975 131.476 167.975H151.336C155.557 167.975 158.979 164.558 158.979 160.344V140.514C158.979 136.3 155.557 132.883 151.336 132.883Z" fill="#FAFEFF"/>
<path d="M131.845 137.122L132.991 139.433L135.541 139.801L133.697 141.603L134.128 144.142L131.845 142.943L129.57 144.142L130.001 141.603L128.157 139.801L130.707 139.433L131.845 137.122Z" fill="#D3D5D2"/>
<path d="M150.952 137.122L152.097 139.433L154.647 139.801L152.803 141.603L153.235 144.142L150.952 142.943L148.668 144.142L149.108 141.603L147.264 139.801L149.814 139.433L150.952 137.122Z" fill="#76787C"/>
</svg>
